<svg xmlns="http://www.w3.org/2000/svg" xmlns:xlink="http://www.w3.org/1999/xlink" width="1080" zoomAndPan="magnify" viewBox="0 0 810 809.999993" height="1080" preserveAspectRatio="xMidYMid meet" version="1.2"><defs><clipPath id="c93f670112"><path d="M 264.808594 182 L 545.308594 182 L 545.308594 516 L 264.808594 516 Z M 264.808594 182 "/></clipPath><clipPath id="f56fe8cc6a"><path d="M 352 276.761719 L 455 276.761719 L 455 477 L 352 477 Z M 352 276.761719 "/></clipPath><clipPath id="f4b64ce469"><path d="M 278.183594 490 L 531.683594 490 L 531.683594 501.761719 L 278.183594 501.761719 Z M 278.183594 490 "/></clipPath></defs><g id="f8dff439e7"><g clip-rule="nonzero" clip-path="url(#c93f670112)"><path style=" stroke:none;fill-rule:nonzero;fill:#b99751;fill-opacity:1;" d="M 404.96875 182.707031 C 337.972656 211.128906 264.808594 286.019531 264.808594 374.972656 L 264.808594 515.167969 L 545.128906 515.167969 L 545.128906 374.972656 C 545.128906 286.019531 471.964844 211.128906 404.96875 182.707031 Z M 404.96875 182.707031 "/></g><path style=" stroke:none;fill-rule:nonzero;fill:#ffffff;fill-opacity:1;" d="M 370.554688 345.523438 C 364.054688 339.761719 356.691406 333.222656 349.605469 322.714844 L 344.609375 315.308594 L 339.617188 322.714844 C 332.527344 333.222656 325.164062 339.761719 318.667969 345.523438 C 307.632812 355.316406 298.101562 363.777344 298.101562 384.429688 L 298.101562 476.582031 L 310.148438 476.582031 L 310.148438 384.429688 C 310.148438 369.191406 316.367188 363.675781 326.664062 354.535156 C 331.953125 349.84375 338.269531 344.238281 344.609375 336.265625 C 350.949219 344.238281 357.265625 349.84375 362.554688 354.535156 C 372.855469 363.675781 379.070312 369.191406 379.070312 384.429688 L 379.070312 464.535156 L 355.476562 464.535156 L 355.476562 476.582031 L 391.121094 476.582031 L 391.121094 384.429688 C 391.121094 363.777344 381.589844 355.316406 370.554688 345.523438 "/><path style=" stroke:none;fill-rule:nonzero;fill:#ffffff;fill-opacity:1;" d="M 491.179688 345.523438 C 484.679688 339.761719 477.316406 333.222656 470.230469 322.714844 L 465.234375 315.308594 L 460.238281 322.714844 C 453.15625 333.222656 445.789062 339.761719 439.292969 345.523438 C 428.257812 355.316406 418.726562 363.777344 418.726562 384.429688 L 418.726562 476.582031 L 454.210938 476.582031 L 454.210938 464.535156 L 430.777344 464.535156 L 430.777344 384.429688 C 430.777344 369.191406 436.992188 363.675781 447.289062 354.535156 C 452.582031 349.84375 458.894531 344.238281 465.234375 336.265625 C 471.574219 344.238281 477.890625 349.84375 483.179688 354.535156 C 493.480469 363.675781 499.695312 369.191406 499.695312 384.429688 L 499.695312 476.582031 L 511.746094 476.582031 L 511.746094 384.429688 C 511.746094 363.777344 502.214844 355.316406 491.179688 345.523438 "/><g clip-rule="nonzero" clip-path="url(#f56fe8cc6a)"><path style=" stroke:none;fill-rule:nonzero;fill:#ffffff;fill-opacity:1;" d="M 431.710938 309.480469 C 424.507812 303.085938 416.34375 295.84375 408.472656 284.171875 L 403.476562 276.761719 L 398.480469 284.171875 C 390.609375 295.84375 382.445312 303.085938 375.242188 309.480469 C 363.167969 320.195312 352.742188 329.449219 352.742188 351.972656 L 352.742188 476.582031 L 391.121094 476.582031 L 391.121094 464.890625 L 364.792969 465.070312 L 364.792969 351.902344 C 364.8125 334.847656 371.75 328.6875 383.242188 318.492188 C 389.199219 313.203125 396.339844 306.867188 403.476562 297.769531 C 410.613281 306.867188 417.753906 313.203125 423.710938 318.492188 C 435.21875 328.699219 442.160156 334.863281 442.160156 351.972656 L 442.160156 352.046875 L 442.113281 464.535156 L 418.726562 464.695312 L 418.726562 476.582031 L 454.160156 476.582031 L 454.210938 351.898438 C 454.1875 329.425781 443.773438 320.183594 431.710938 309.480469 "/></g><g clip-rule="nonzero" clip-path="url(#f4b64ce469)"><path style=" stroke:none;fill-rule:nonzero;fill:#ffffff;fill-opacity:1;" d="M 531.660156 490.132812 L 278.183594 490.132812 L 278.183594 501.742188 L 531.660156 501.742188 L 531.660156 490.132812 "/></g></g></svg>